<?xml version="1.0" encoding="UTF-8" standalone="no"?>
<!-- Created with Inkscape (http://www.inkscape.org/) -->

<svg
   width="790.78278mm"
   height="790.78625mm"
   viewBox="0 0 790.78278 790.78625"
   version="1.1"
   id="svg5"
   inkscape:version="1.2.1 (9c6d41e, 2022-07-14)"
   sodipodi:docname="tara-crown-perfect.svg"
   xmlns:inkscape="http://www.inkscape.org/namespaces/inkscape"
   xmlns:sodipodi="http://sodipodi.sourceforge.net/DTD/sodipodi-0.dtd"
   xmlns="http://www.w3.org/2000/svg"
   xmlns:svg="http://www.w3.org/2000/svg">
  <sodipodi:namedview
     id="namedview7"
     pagecolor="#ffffff"
     bordercolor="#000000"
     borderopacity="0.25"
     inkscape:showpageshadow="2"
     inkscape:pageopacity="0.0"
     inkscape:pagecheckerboard="0"
     inkscape:deskcolor="#d1d1d1"
     inkscape:document-units="mm"
     showgrid="false"
     inkscape:zoom="0.47584683"
     inkscape:cx="1804.152"
     inkscape:cy="1618.1678"
     inkscape:window-width="2004"
     inkscape:window-height="1278"
     inkscape:window-x="244"
     inkscape:window-y="25"
     inkscape:window-maximized="0"
     inkscape:current-layer="layer1" />
  <defs
     id="defs2" />
  <g
     inkscape:label="Layer 1"
     inkscape:groupmode="layer"
     id="layer1"
     transform="translate(326.1753,241.85924)">
    <path
       sodipodi:type="star"
       style="display:inline;opacity:0.91;fill:#eeeeee;fill-opacity:0;stroke:#111111;stroke-width:1.06683;stroke-dasharray:none"
       id="path57564"
       inkscape:flatsided="false"
       sodipodi:sides="36"
       sodipodi:cx="829.82953"
       sodipodi:cy="177.99243"
       sodipodi:r1="271.65286"
       sodipodi:r2="260.78677"
       sodipodi:arg1="0.52903047"
       sodipodi:arg2="0.61629693"
       inkscape:rounded="0"
       inkscape:randomized="0"
       d="m 1064.3466,315.0947 -21.7087,13.63701 -5.6617,25.00356 -23.7469,9.66016 -9.9176,23.64055 -25.06356,5.38979 -13.87203,21.55924 -25.61874,0.95566 -17.405,18.82285 -25.39549,-3.50751 -20.40913,15.51454 -24.40061,-7.86409 -22.79314,11.73483 -22.66432,-11.98175 -24.48459,7.59857 -20.23939,-15.73533 -25.43209,3.23142 -17.1995,-19.01081 -25.60685,-1.23391 -13.63701,-21.70866 -25.00356,-5.66174 -9.66016,-23.74689 -23.64055,-9.91756 -5.38979,-25.06359 -21.55923,-13.87203 -0.95567,-25.61874 -18.82285,-17.405 3.50751,-25.39549 -15.51454,-20.40913 7.86409,-24.4006 -11.73483,-22.79315 11.98175,-22.66431 -7.59857,-24.4846 15.73533,-20.23939 -3.23142,-25.432092 19.01081,-17.199494 1.23391,-25.606855 21.70866,-13.637003 5.66174,-25.0035628 23.74689,-9.6601587 9.91756,-23.6405505 25.06359,-5.389795 13.87203,-21.559231 25.61874,-0.955665 17.405,-18.822846 25.39549,3.507502 20.40913,-15.514539 24.40061,7.864096 22.79314,-11.73483 22.66431,11.981743 24.4846,-7.598563 20.23939,15.735331 25.43209,-3.23142 17.1995,19.010809 25.60685,1.23391 13.637,21.708653 25.0036,5.661748 9.6601,23.7468901 23.6406,9.9175563 5.3898,25.0635906 21.5592,13.872025 0.9557,25.618746 18.8228,17.404999 -3.5075,25.395486 15.5146,20.40913 -7.8641,24.40061 11.7348,22.79314 -11.9818,22.66432 7.5986,24.48459 -15.7353,20.23939 3.2314,25.43209 -19.0108,17.1995 z"
       transform="matrix(0.65567889,0,0,0.65562916,-474.96189,36.759023)"
       inkscape:transform-center-y="-4.8296488e-06"
       inkscape:transform-center-x="3.0775031e-06" />
    <path
       style="display:inline;opacity:0.91;fill:#eeeeee;fill-opacity:0;stroke:#111111;stroke-width:0.822974;stroke-dasharray:none"
       d="M 159.03488,-0.3001621 463.69648,155.21986 157.35917,308.17966"
       id="path57568"
       sodipodi:nodetypes="ccc" />
    <path
       style="display:inline;opacity:0.91;fill:#eeeeee;fill-opacity:0;stroke:#111111;stroke-width:0.822974;stroke-dasharray:none"
       d="M -19.07954,-1.2675613 -325.26426,152.72046 -20.755251,307.21226"
       id="path57570"
       sodipodi:nodetypes="ccc" />
    <path
       style="display:inline;opacity:0.91;fill:#eeeeee;fill-opacity:0;stroke:#111111;stroke-width:0.822974;stroke-dasharray:none"
       d="M 184.37068,17.644671 457.29309,224.0258 129.14941,321.14703"
       id="path57572"
       sodipodi:nodetypes="ccc" />
    <path
       style="display:inline;opacity:0.91;fill:#eeeeee;fill-opacity:0;stroke:#111111;stroke-width:0.822974;stroke-dasharray:none"
       d="M 9.1302218,-14.23493 -319.12664,83.891162 -46.091055,289.26743"
       id="path57574"
       sodipodi:nodetypes="ccc" />
    <path
       style="display:inline;opacity:0.91;fill:#eeeeee;fill-opacity:0;stroke:#111111;stroke-width:0.822974;stroke-dasharray:none"
       d="M 206.20526,39.716064 439.35313,289.5439 99.116284,329.0192"
       id="path57576"
       sodipodi:nodetypes="ccc" />
    <path
       style="display:inline;opacity:0.91;fill:#eeeeee;fill-opacity:0;stroke:#111111;stroke-width:0.822974;stroke-dasharray:none"
       d="M 39.163344,-22.107093 -301.53513,18.343113 -67.925627,267.19604"
       id="path57578"
       sodipodi:nodetypes="ccc" />
    <path
       style="display:inline;opacity:0.91;fill:#eeeeee;fill-opacity:0;stroke:#111111;stroke-width:0.822974;stroke-dasharray:none"
       d="M 223.87516,65.243388 409.78868,352.08907 67.247943,331.34641"
       id="path57580"
       sodipodi:nodetypes="ccc" />
    <path
       style="display:inline;opacity:0.91;fill:#eeeeee;fill-opacity:0;stroke:#111111;stroke-width:0.822974;stroke-dasharray:none"
       d="M 70.107287,-24.644859 -272.40504,-44.240217 -85.595534,241.66871"
       id="path57582"
       sodipodi:nodetypes="ccc" />
    <path
       style="display:inline;opacity:0.91;fill:#eeeeee;fill-opacity:0;stroke:#111111;stroke-width:0.822974;stroke-dasharray:none"
       d="M 236.84352,93.45101 370.73942,407.66417 37.257795,328.68322"
       id="path57584"
       sodipodi:nodetypes="ccc" />
    <path
       style="display:inline;opacity:0.91;fill:#eeeeee;fill-opacity:0;stroke:#111111;stroke-width:0.822974;stroke-dasharray:none"
       d="M 101.02183,-21.771119 -233.35512,-99.814823 -98.563887,213.46109"
       id="path57586"
       sodipodi:nodetypes="ccc" />
    <path
       style="display:inline;opacity:0.91;fill:#eeeeee;fill-opacity:0;stroke:#111111;stroke-width:0.822974;stroke-dasharray:none"
       d="M 244.71628,123.48186 323.857,454.76934 7.3119681,320.48529"
       id="path57588"
       sodipodi:nodetypes="ccc" />
    <path
       style="display:inline;opacity:0.91;fill:#eeeeee;fill-opacity:0;stroke:#111111;stroke-width:0.822974;stroke-dasharray:none"
       d="m 130.96766,-13.57319 -317.43977,-133.34622 80.03546,330.34966"
       id="path57590"
       sodipodi:nodetypes="ccc" />
    <path
       style="display:inline;opacity:0.91;fill:#eeeeee;fill-opacity:0;stroke:#111111;stroke-width:0.822974;stroke-dasharray:none"
       d="M 247.25423,154.42345 266.26984,495.36283 -20.755251,307.21226"
       id="path57592"
       sodipodi:nodetypes="ccc" />
    <path
       style="display:inline;opacity:0.91;fill:#eeeeee;fill-opacity:0;stroke:#111111;stroke-width:0.822974;stroke-dasharray:none"
       d="m 159.03488,-0.3001621 -287.9193,-187.2120279 19.90981,340.00084"
       id="path57594"
       sodipodi:nodetypes="ccc" />
    <path
       style="display:inline;opacity:0.91;fill:#eeeeee;fill-opacity:0;stroke:#111111;stroke-width:0.822974;stroke-dasharray:none"
       d="M 244.38028,185.33565 203.1916,524.77122 -46.091055,289.26743"
       id="path57596"
       sodipodi:nodetypes="ccc" />
    <path
       style="display:inline;opacity:0.91;fill:#eeeeee;fill-opacity:0;stroke:#111111;stroke-width:0.822974;stroke-dasharray:none"
       d="M 184.37068,17.644671 -65.805791,-216.91982 -106.10065,121.57645"
       id="path57598"
       sodipodi:nodetypes="ccc" />
    <path
       style="display:inline;opacity:0.91;fill:#eeeeee;fill-opacity:0;stroke:#111111;stroke-width:0.822974;stroke-dasharray:none"
       d="M 236.18173,215.27921 136.3299,542.35306 -67.925627,267.19604"
       id="path57600"
       sodipodi:nodetypes="ccc" />
    <path
       style="display:inline;opacity:0.91;fill:#eeeeee;fill-opacity:0;stroke:#111111;stroke-width:0.822974;stroke-dasharray:none"
       d="M 206.20526,39.716064 1.0943412,-234.93488 -97.902097,91.632894"
       id="path57602"
       sodipodi:nodetypes="ccc" />
    <path
       style="display:inline;opacity:0.91;fill:#eeeeee;fill-opacity:0;stroke:#111111;stroke-width:0.822974;stroke-dasharray:none"
       d="M 222.90769,243.3443 68.316768,548.01601 -85.595534,241.66871"
       id="path57604"
       sodipodi:nodetypes="ccc" />
    <path
       style="display:inline;opacity:0.91;fill:#eeeeee;fill-opacity:0;stroke:#111111;stroke-width:0.822974;stroke-dasharray:none"
       d="M 223.87516,65.243388 69.138052,-240.9482 -84.628062,63.567804"
       id="path57606"
       sodipodi:nodetypes="ccc" />
    <path
       style="display:inline;opacity:0.91;fill:#eeeeee;fill-opacity:0;stroke:#111111;stroke-width:0.822974;stroke-dasharray:none"
       d="M 204.9615,268.67818 -3.1617864,541.27072 -98.563887,213.46109"
       id="path57608"
       sodipodi:nodetypes="ccc" />
    <path
       style="display:inline;opacity:0.91;fill:#eeeeee;fill-opacity:0;stroke:#111111;stroke-width:0.822974;stroke-dasharray:none"
       d="M 236.84352,93.45101 140.64172,-234.47779 -66.681868,38.233922"
       id="path57610"
       sodipodi:nodetypes="ccc" />
    <path
       style="display:inline;opacity:0.91;fill:#eeeeee;fill-opacity:0;stroke:#111111;stroke-width:0.822974;stroke-dasharray:none"
       d="M 182.88843,290.5111 -68.693267,522.98329 -106.43665,183.43025"
       id="path57612"
       sodipodi:nodetypes="ccc" />
    <path
       style="display:inline;opacity:0.91;fill:#eeeeee;fill-opacity:0;stroke:#111111;stroke-width:0.822974;stroke-dasharray:none"
       d="M 244.71628,123.48186 206.20345,-216.54156 -44.608801,16.401006"
       id="path57614"
       sodipodi:nodetypes="ccc" />
    <path
       style="display:inline;opacity:0.91;fill:#eeeeee;fill-opacity:0;stroke:#111111;stroke-width:0.822974;stroke-dasharray:none"
       d="M 157.35917,308.17966 -132.88662,492.0388 -108.97461,152.48865"
       id="path57616"
       sodipodi:nodetypes="ccc" />
    <path
       style="display:inline;opacity:0.91;fill:#eeeeee;fill-opacity:0;stroke:#111111;stroke-width:0.822974;stroke-dasharray:none"
       d="M 247.25423,154.42345 270.43692,-186.0433 -19.07954,-1.2675613"
       id="path57618"
       sodipodi:nodetypes="ccc" />
    <path
       style="display:inline;opacity:0.91;fill:#eeeeee;fill-opacity:0;stroke:#111111;stroke-width:0.822974;stroke-dasharray:none"
       d="m 129.14941,321.14703 -319.29287,129.47094 84.04281,-329.04152"
       id="path57620"
       sodipodi:nodetypes="ccc" />
    <path
       style="display:inline;opacity:0.91;fill:#eeeeee;fill-opacity:0;stroke:#111111;stroke-width:0.822974;stroke-dasharray:none"
       d="M 244.38028,185.33565 327.69322,-144.62177 9.1302218,-14.23493"
       id="path57622"
       sodipodi:nodetypes="ccc" />
    <path
       style="display:inline;opacity:0.91;fill:#eeeeee;fill-opacity:0;stroke:#111111;stroke-width:0.822974;stroke-dasharray:none"
       d="M 99.116284,329.0192 -237.29723,401.86852 -97.902097,91.632894"
       id="path57624"
       sodipodi:nodetypes="ccc" />
    <path
       style="display:inline;opacity:0.91;fill:#eeeeee;fill-opacity:0;stroke:#111111;stroke-width:0.822974;stroke-dasharray:none"
       d="M 236.18173,215.27921 374.84636,-95.871742 39.163344,-22.107093"
       id="path57626"
       sodipodi:nodetypes="ccc" />
    <path
       style="display:inline;opacity:0.91;fill:#eeeeee;fill-opacity:0;stroke:#111111;stroke-width:0.822974;stroke-dasharray:none"
       d="M 68.172342,331.55696 -274.06332,348.13624 -84.628062,63.567804"
       id="path57628"
       sodipodi:nodetypes="ccc" />
    <path
       style="display:inline;opacity:0.91;fill:#eeeeee;fill-opacity:0;stroke:#111111;stroke-width:0.822974;stroke-dasharray:none"
       d="M 222.90769,243.3443 411.61182,-42.139012 70.107287,-24.644859"
       id="path57630"
       sodipodi:nodetypes="ccc" />
    <path
       style="display:inline;opacity:0.91;fill:#eeeeee;fill-opacity:0;stroke:#111111;stroke-width:0.822974;stroke-dasharray:none"
       d="M 37.257795,328.68322 -302.5014,286.30659 -66.681868,38.233922"
       id="path57632"
       sodipodi:nodetypes="ccc" />
    <path
       style="display:inline;opacity:0.91;fill:#eeeeee;fill-opacity:0;stroke:#111111;stroke-width:0.822974;stroke-dasharray:none"
       d="M 204.9615,268.67818 438.05623,19.604268 101.02183,-21.771119"
       id="path57634"
       sodipodi:nodetypes="ccc" />
    <path
       style="display:inline;opacity:0.91;fill:#eeeeee;fill-opacity:0;stroke:#111111;stroke-width:0.822974;stroke-dasharray:none"
       d="M 7.3119681,320.48529 -318.88862,218.31897 -44.608801,16.401006"
       id="path57636"
       sodipodi:nodetypes="ccc" />
    <path
       style="display:inline;opacity:0.91;fill:#eeeeee;fill-opacity:0;stroke:#111111;stroke-width:0.822974;stroke-dasharray:none"
       d="M 182.88843,290.5111 457.92472,87.086448 130.96766,-13.57319"
       id="path57638"
       sodipodi:nodetypes="ccc" />
  </g>
</svg>
